<svg viewBox="0 0 576 512" xmlns="http://www.w3.org/2000/svg"><path d="m560 192-101.6.002-93.11-179.1c-6.062-11.72-20.61-16.37-32.36-10.22-11.78 6.094-16.34 20.59-10.22 32.34l81.61 156.9H171.7l81.61-156.9c6.09-11.702 1.59-26.2-10.21-32.294-11.8-6.125-26.3-1.5-32.4 10.222l-93.11 179.1L16 192c-8.836 0-16 7.164-16 15.1v32c0 8.836 7.164 15.1 16 15.1h23.11l45.75 205.9c6.51 31.1 32.44 51.9 62.44 51.9h281.3c29.1 0 55.97-20.83 62.48-50.12l45.75-205.9H560c8.838 0 16-7.164 16-15.1v-32c0-9.68-7.2-16.88-16-16.88zM192 432c0 8.834-7.166 15.1-16 15.1-8.832 0-16-7.166-16-15.1V304c0-8.834 7.168-15.1 16-15.1 8.834 0 16 7.166 16 15.1v128zm112 0c0 8.834-7.166 15.1-16 15.1-8.832 0-16-7.165-16-15.1V304c0-8.834 7.168-15.1 16-15.1 8.834 0 16 7.166 16 15.1v128zm112 0c0 8.834-7.166 15.1-16 15.1-8.832 0-16-7.166-16-15.1V304c0-8.834 7.168-15.1 16-15.1 8.834 0 16 7.166 16 15.1v128z" fill="#202020" class="fill-000000"></path></svg>